# xmcd
#
# Track frame offsets:
#	150
#	16119
#	32628
#	47357
#	61177
#	75368
#	93567
#	111249
#	128001
#	144767
#	159733
#	173947
#	191830
#	204645
#	217120
#
# Disc length: 3293 seconds
#
# Revision: 2
# Processed by: cddbd v1.5.2PL0 Copyright (c) Steve Scherf et al.
# Submitted via: EZCDAudioConverter 3.1.7.1
#
DISCID=c50cdb0f
DTITLE=Colt Ford - Declaration Of Independence
DYEAR=2012
DGENRE=Country
TTITLE0=Answer To No One Featuring JJ Lawhorn
TTITLE1=Drivin' Around Song Featuring Jason Aldean
TTITLE2=All In Featuring Kix Brooks
TTITLE3=Ain't Out Of The Woods Yet Featuring Montgomery Gentry
TTITLE4=Lucky Featuring Jonathan Singleton
TTITLE5=Back Featuring Jake Owen 
TTITLE6=Dancin' While Intoxicated ( DWI ) Featuring Locash Cowboys and Redneck S
TTITLE6=ocial Club
TTITLE7=It's All Featuring Jeffrey Steele
TTITLE8=Hugh Damn Right Featuring Laura Bell Bundy
TTITLE9=Room At The Bar Featuring Corey Smith
TTITLE10=All Of My Tomorrows Featuring Russell Dickerson
TTITLE11=Happy In Hell Featuring Wanya Morris of Boyz II Men
TTITLE12=50-50
TTITLE13=Way Too Early Featuring Darius Rucker
TTITLE14=Angels and Demons Featuring Lamar Williams Jr
EXTD=
EXTT0=
EXTT1=
EXTT2=
EXTT3=
EXTT4=
EXTT5=
EXTT6=
EXTT7=
EXTT8=
EXTT9=
EXTT10=
EXTT11=
EXTT12=
EXTT13=
EXTT14=
PLAYORDER=
